# xmcd
#
# Track frame offsets: 
#        150
#        16964
#        33644
#        49526
#        60586
#        79627
#        92610
#        105845
#        122685
#        142071
#        164174
#
# Disc length: 2450 seconds
#
# Revision: 0
# Processed by: cddbd v1.5.2PL0 Copyright (c) Steve Scherf et al.
# Submitted via: ExactAudioCopyFreeDBPlugin 1.0
#
DISCID=8809900b
DTITLE=Anderson East - Encore
DYEAR=2018
DGENRE=Blues
TTITLE0=King For A Day
TTITLE1=This Too Shall Last
TTITLE2=House Is A Building
TTITLE3=Sorry You're Sick
TTITLE4=If You Keep Leaving Me
TTITLE5=Girlfriend
TTITLE6=Surrender
TTITLE7=All On My Mind
TTITLE8=Without You
TTITLE9=Somebody Pick Up My Pieces
TTITLE10=Cabinet Door
EXTD=
EXTT0=
EXTT1=
EXTT2=
EXTT3=
EXTT4=
EXTT5=
EXTT6=
EXTT7=
EXTT8=
EXTT9=
EXTT10=
PLAYORDER=
